<svg width="99" height="101" viewBox="0 0 99 101" fill="none" xmlns="http://www.w3.org/2000/svg">
<path d="M52.832 50.5009L62.4434 60.3063C71.1145 52.2109 82.1944 47.2488 94.0801 46.1385C93.1455 36.122 89.0286 27.0385 82.7737 19.9548L52.832 50.5009Z" fill="#FD5C02"/>
<path d="M46.1651 50.5009L36.5556 40.6974C27.8849 48.7924 16.8053 53.754 4.91956 54.864C5.85392 64.88 9.96991 73.963 16.2238 81.0465L46.1651 50.5009Z" fill="#FD5C02"/>
<path d="M62.4465 67.1111C55.3424 75.0998 50.9683 85.2687 49.9392 96.1848C61.2677 96.0728 71.603 91.6501 79.4409 84.4485L62.4465 67.1111Z" fill="#FD5C02"/>
<path d="M39.8889 37.2965L49.4984 47.0999L79.4401 16.5541C72.4965 10.1744 63.5935 5.97531 53.7759 5.02185C52.6876 17.1473 47.8241 28.4508 39.8889 37.2965Z" fill="#FD5C02"/>
<path d="M59.1099 63.707L49.4985 53.9016L19.5573 84.4475C26.5011 90.8284 35.4048 95.0279 45.2232 95.9809C46.3117 83.8557 51.1749 72.5527 59.1099 63.707Z" fill="#FD5C02"/>
<path d="M36.5524 33.8926C43.6565 25.9035 48.0309 15.7343 49.06 4.81818C37.7312 4.92975 27.3957 9.35271 19.5579 16.555L36.5524 33.8926Z" fill="#FD5C02"/>
<path d="M16.2242 19.9557C9.16489 27.9518 4.82968 38.4957 4.7196 50.0527C15.42 49.0032 25.388 44.5408 33.2188 37.2933L16.2242 19.9557Z" fill="#FD5C02"/>
<path d="M82.7745 81.0478C89.8347 73.0517 94.1704 62.5073 94.28 50.9496C83.5797 51.9993 73.6112 56.4621 65.7802 63.7101L82.7745 81.0478Z" fill="#FD5C02"/>
<path d="M49.4987 0.00300598C22.205 0.00300598 0 22.6569 0 50.5021C0 78.3468 22.205 101 49.4987 101C76.7939 101 99 78.3468 99 50.5021C98.9998 22.6569 76.7936 0.00300598 49.4987 0.00300598ZM4.71989 50.0529C4.82973 38.4957 9.16493 27.9521 16.2245 19.956L33.2191 37.2936C25.3882 44.5409 15.4202 49.0033 4.71989 50.0529ZM49.06 4.81817C48.0309 15.7343 43.6566 25.9035 36.5525 33.8926L19.5579 16.555C27.3958 9.3527 37.7313 4.92975 49.06 4.81817ZM94.2801 50.9496C94.1705 62.5073 89.8351 73.0514 82.7746 81.0478L65.78 63.7104C73.6113 56.4621 83.5797 51.9995 94.2801 50.9496ZM62.4435 60.3063L52.8321 50.5009L82.7739 19.9548C89.0287 27.0385 93.1456 36.122 94.0802 46.1385C82.1945 47.2488 71.1146 52.2106 62.4435 60.3063ZM36.5555 40.6974L46.165 50.5009L16.2238 81.0465C9.96989 73.9628 5.85389 64.8798 4.91953 54.864C16.8053 53.754 27.8849 48.7924 36.5555 40.6974ZM49.4985 47.1002L39.889 37.2967C47.824 28.4508 52.6874 17.1475 53.7759 5.02209C63.5935 5.97555 72.4966 10.1746 79.4402 16.5543L49.4985 47.1002ZM49.4985 53.9016L59.1098 63.707C51.1748 72.5527 46.3114 83.8557 45.2231 95.9809C35.4048 95.0277 26.5008 90.8281 19.5572 84.4475L49.4985 53.9016ZM62.4466 67.1111L79.4409 84.4485C71.603 91.6501 61.2678 96.0725 49.9392 96.1848C50.9684 85.2687 55.3425 75.0997 62.4466 67.1111Z" fill="black"/>
</svg>
